HIERARCHY
ROOT hip
{
	OFFSET	0.00  0.00  0.00 
	CHANNELS 6 Xposition Yposition Zposition Xrotation Zrotation Yrotation
	JOINT abdomen
	{
		OFFSET	0.000000 0.000000 0.000000
		CHANNELS 3 Xrotation Zrotation Yrotation
		JOINT chest
		{
			OFFSET	0.000000 5.018152 -1.882228
			CHANNELS 3 Xrotation Zrotation Yrotation
			JOINT neckDummy
			{
				OFFSET	0.000000 8.316447 0.784897
				CHANNELS 3 Xrotation Yrotation Zrotation
				JOINT neck
				{
					OFFSET	0.000000 2.280413 -0.392801
					CHANNELS 3 Xrotation Zrotation Yrotation
					JOINT head
					{
						OFFSET	0.000000 3.496879 0.529469
						CHANNELS 3 Xrotation Zrotation Yrotation
						JOINT figureHair
						{
							OFFSET	0.000000 4.699570 0.720622
							CHANNELS 3 Zrotation Yrotation Xrotation
							End Site
							{
								OFFSET 0.000000 -6.419331 0.000000
							}
						}
					}
				}
			}
			JOINT lCollar
			{
				OFFSET	0.599237 8.316447 0.784897
				CHANNELS 3 Yrotation Zrotation Xrotation
				JOINT lShldr
				{
					OFFSET	6.421198 0.010146 -0.332128
					CHANNELS 3 Zrotation Yrotation Xrotation
					JOINT lForeArm
					{
						OFFSET	10.552783 0.025574 0.125508
						CHANNELS 3 Yrotation Zrotation Xrotation
						JOINT lHand
						{
							OFFSET	11.035963 0.319619 0.041520
							CHANNELS 3 Zrotation Yrotation Xrotation
							End Site
							{
								OFFSET 10.353753 0.000000 0.000000
							}
						}
					}
				}
			}
			JOINT rCollar
			{
				OFFSET	-0.599237 8.316447 0.784897
				CHANNELS 3 Yrotation Zrotation Xrotation
				JOINT rShldr
				{
					OFFSET	-6.421198 0.010146 -0.332128
					CHANNELS 3 Zrotation Yrotation Xrotation
					JOINT rForeArm
					{
						OFFSET	-10.552783 0.025574 0.125508
						CHANNELS 3 Yrotation Zrotation Xrotation
						JOINT rHand
						{
							OFFSET	-11.035963 0.319619 0.041520
							CHANNELS 3 Zrotation Yrotation Xrotation
							End Site
							{
								OFFSET -10.353753 0.000000 0.000000
							}
						}
					}
				}
			}
		}
	}
	JOINT lThigh
	{
		OFFSET	4.500466 -6.400484 -1.832696
		CHANNELS 3 Xrotation Zrotation Yrotation
		JOINT lShin
		{
			OFFSET	-1.359117 -18.918689 1.179887
			CHANNELS 3 Xrotation Zrotation Yrotation
			JOINT lFoot
			{
				OFFSET	-0.652380 -17.215186 -0.312137
				CHANNELS 3 Xrotation Yrotation Zrotation
				End Site
				{
					OFFSET 0.000000 0.000000 10.353752
				}
			}
		}
	}
	JOINT rThigh
	{
		OFFSET	-4.500466 -6.400484 -1.832696
		CHANNELS 3 Xrotation Zrotation Yrotation
		JOINT rShin
		{
			OFFSET	1.359117 -18.918689 1.179887
			CHANNELS 3 Xrotation Zrotation Yrotation
			JOINT rFoot
			{
				OFFSET	0.652380 -17.215186 -0.312137
				CHANNELS 3 Xrotation Yrotation Zrotation
				End Site
				{
					OFFSET 0.000000 0.000000 10.353752
				}
			}
		}
	}
}
MOTION
Frames:     6
Frame Time: 0.066667
-17.509958 41.929996 -1.839998 -174.326004 -175.283005 2.928880 11.601600 -1.826170 6.952810 0.000000 0.000000 0.000000 0.000000 0.000000 0.000000 -10.439500 3.496090 -0.741592 0.000000 0.000000 0.000000 0.000000 0.000000 0.000000 0.000000 0.000000 0.000000 -51.852699 10.977300 71.751198 -43.592602 33.780602 6.265560 -14.289900 -9.452780 -17.501499 0.000000 0.000000 0.000000 65.249100 -11.167200 67.563301 40.320999 -33.703800 19.421801 12.772800 1.054100 -18.038799 -2.536258 3.295786 9.079003 25.588308 2.835428 -3.810683 -10.356761 -2.556221 -11.432498 -5.730023 -8.317067 0.063207 27.849308 -3.441833 3.498093 -10.071740 -3.669647 9.022377 
-16.160034 41.150002 -1.920001 -170.507996 -175.654007 4.648440 14.218800 -0.888672 7.539060 0.000000 0.000000 0.000000 0.000000 0.000000 0.000000 -6.806640 3.281250 -7.109380 0.000000 0.000000 0.000000 0.000000 0.000000 0.000000 0.000000 0.000000 0.000000 -62.070099 15.000500 67.856796 -42.893501 32.846001 7.881390 -9.308590 -1.205150 -14.242400 0.000000 0.000000 0.000000 72.280098 -15.678200 63.216000 45.409698 -36.190102 20.789801 4.574230 0.609085 -22.750799 -3.377382 7.260238 11.758916 37.699402 6.158734 -6.591070 -17.861158 0.608063 -10.011835 -8.775892 -9.068657 -0.973830 41.340191 -2.724072 0.626398 -14.406716 -4.789623 5.361282 
-14.400001 39.309994 -2.540004 -165.811005 -176.298996 2.040390 16.894501 -3.515630 9.365240 0.000000 0.000000 0.000000 0.000000 0.000000 0.000000 0.058594 5.917970 -9.051730 0.000000 0.000000 0.000000 0.000000 0.000000 0.000000 0.000000 0.000000 0.000000 -58.364399 18.381399 55.977100 -64.497704 47.375099 21.589001 -6.027900 1.089740 -2.826850 0.000000 0.000000 0.000000 73.412201 -19.621201 54.773300 62.985001 -48.265800 27.210699 -8.641000 -1.789560 -19.884600 -3.583858 10.320230 14.158389 49.703541 8.259484 -7.395103 -24.315550 2.576394 -9.923651 -14.147176 -9.558206 -4.345485 59.336864 -2.169278 -0.381123 -18.080616 -6.943012 2.878827 
-12.979983 39.329998 -2.489996 -168.134995 -179.121002 -4.004060 11.503900 -5.087890 10.693400 0.000000 0.000000 0.000000 0.000000 0.000000 0.000000 6.455080 8.642580 -5.271970 0.000000 0.000000 0.000000 0.000000 0.000000 0.000000 0.000000 0.000000 0.000000 -42.701698 30.031300 28.434999 -107.615997 48.787399 50.714802 15.090100 3.297320 -0.131783 0.000000 0.000000 0.000000 60.053600 -31.688200 25.931999 107.809998 -47.359901 62.327202 -36.419498 -7.117810 -12.035800 -2.617687 14.607742 19.652470 45.158413 7.170004 -6.988237 -22.042978 1.129119 -11.859961 -18.622290 -12.489637 -8.853251 59.671593 0.605408 3.260626 -9.864550 0.411716 12.252314 
-11.880000 41.569996 -1.829996 3.251950 0.468750 171.104004 8.632810 -3.095700 13.065900 0.000000 0.000000 0.000000 0.000000 0.000000 0.000000 -5.039060 6.171880 -2.010670 0.000000 0.000000 0.000000 0.000000 0.000000 0.000000 0.000000 0.000000 0.000000 -23.433100 29.973101 15.558300 -69.471298 50.519199 23.943100 33.471199 0.104748 2.265260 0.000000 0.000000 0.000000 35.579399 -34.297798 5.256170 83.662102 -53.454201 48.457100 -38.637901 -12.231900 -0.779826 -1.094503 16.053633 21.223022 25.651499 2.321944 0.688236 -7.134392 -4.405806 -14.991029 -21.355207 -16.120062 -16.999725 46.550777 -1.415713 8.621065 2.936373 5.915818 21.947357 
-10.220004 42.699997 -1.220005 -2.402340 0.273438 170.938004 4.746090 -1.132810 12.411900 0.000000 0.000000 0.000000 0.000000 0.000000 0.000000 -13.320300 4.863280 1.875000 0.000000 0.000000 0.000000 0.000000 0.000000 0.000000 0.000000 0.000000 0.000000 -4.178870 23.735399 14.643900 -14.369400 17.662001 -1.602990 25.360001 2.958910 8.563120 0.000000 0.000000 0.000000 7.296980 -28.108601 7.084750 13.234500 -20.684999 0.794962 -10.365300 -13.359200 5.649910 0.856174 16.603535 20.355278 6.940152 0.558726 7.456868 13.436953 -9.484731 -14.651292 -15.271179 -19.787251 -21.217941 23.617239 -3.143288 5.665143 19.579470 0.194104 15.415323 
